<?xml version="1.0" encoding="utf-8"?>
<!-- Generator: Adobe Illustrator 24.1.1, SVG Export Plug-In . SVG Version: 6.00 Build 0)  -->
<svg version="1.1" id="Layer_1" xmlns="http://www.w3.org/2000/svg" xmlns:xlink="http://www.w3.org/1999/xlink" x="0px" y="0px"
	 viewBox="0 0 512 512" style="enable-background:new 0 0 512 512;" xml:space="preserve">
<g>
	<path d="M153.6,0h204.8C443.2,0,512,68.8,512,153.6v204.8c0,84.8-68.8,153.6-153.6,153.6H153.6C68.8,512,0,443.2,0,358.4V153.6
		C0,68.8,68.8,0,153.6,0z M307.2,230.4c-14.1,0-25.6,11.5-25.6,25.6c0,14.1,11.5,25.6,25.6,25.6H384c14.1,0,25.6-11.5,25.6-25.6
		c0-14.1-11.5-25.6-25.6-25.6H307.2z M256,332.8c-14.1,0-25.6,11.5-25.6,25.6c0,14.1,11.5,25.6,25.6,25.6h128
		c14.1,0,25.6-11.5,25.6-25.6c0-14.1-11.5-25.6-25.6-25.6H256z M256,128c-14.1,0-25.6,11.5-25.6,25.6c0,14.1,11.5,25.6,25.6,25.6
		h128c14.1,0,25.6-11.5,25.6-25.6c0-14.1-11.5-25.6-25.6-25.6H256z M149.2,262.2l-18.1-18.1c-9.8-10.2-26-10.4-36.2-0.6
		c-10.2,9.8-10.5,26-0.6,36.2l0.6,0.6l36.2,36.2c10,10,26.2,10,36.2,0l0,0l72.4-72.4c10-10,10-26.2,0-36.2c-10-10-26.2-10-36.2,0
		L149.2,262.2L149.2,262.2z"/>
</g>
</svg>
